<svg xmlns="http://www.w3.org/2000/svg" xmlns:xlink="http://www.w3.org/1999/xlink" viewBox="0 0 40.3 40.3">
  <defs>
    <path id="a" d="M0 0h40.3v40.3H0z"/>
  </defs>
  <clipPath id="b">
    <use xlink:href="#a" overflow="visible"/>
  </clipPath>
  <path fill="#F9EDD1" d="M6.6 27.1c0-1.8 2-2 2.1-2l.6-.3c.4-.2.5-.4.5-.8 0-.5-.1-.9-.2-1.3 0 0 0-.1-.1-.1-.2 0-.2-.2-.3-.3 0-.2-.1-.4-.1-.6 0-.1 0-.2.1-.2.2-.1.2.2.1-.4v-.9c.1-.4.3-.7.6-1 .3-.2.5-.4 1.1-.4s.8.2 1.1.4c.3.2.5.6.6 1 .1.3 0 .6 0 .9 0 .6-.1.3.1.4.1 0 .1.2.1.2 0 .2 0 .4-.1.6 0 .1-.1.4-.3.3-.1 0-.1.1-.1.1-.1.4-.2.9-.2 1.3v.2c.2-.1.5-.2.7-.4.5-.3.8-.6.8-1.2 0-.7-.2-1.3-.4-1.9 0-.1 0-.2-.1-.2-.2.1-.3-.3-.4-.5.2-.2.2-.5.2-.8 0-.1.1-.3.1-.3.3-.1.2.3.2-.5 0-.4-.1-.9 0-1.3.1-.5.4-1.1.8-1.4.5-.3.8-.6 1.6-.6.9 0 1.1.3 1.6.6.3.2.6.6.7.9v-.1c0-.2.1-.4.2-.5.4-.2.3.4.2-.7 0-.6-.1-1.2 0-1.7.1-.7.5-1.4 1.1-1.9.7-.4 1-.8 2.2-.8 1.2 0 1.5.3 2.2.8.6.4 1 1.1 1.1 1.9.1.6 0 1.1 0 1.7-.1 1.1-.1.5.2.7.1 0 .2.3.2.5v.1c.1-.4.4-.7.7-.9.5-.3.8-.6 1.6-.6.9 0 1.2.3 1.6.6.5.3.7.8.8 1.4.1.4 0 .9 0 1.3 0 .9-.1.4.2.5.1 0 .2.2.1.3 0 .3 0 .6-.1.9 0 .2-.1.5-.4.5-.1 0-.1.1-.1.2-.2.6-.3 1.2-.4 1.9 0 .6.3.9.8 1.2.3.2.6.3.8.4.1.1 3 .4 3 2.9l-27.4-.1zM20.1 0C9 0 0 9 0 20.1s9 20.1 20.1 20.1 20.1-9 20.1-20.1S31.3 0 20.1 0" clip-path="url(#b)"/>
  <path fill="#F9EDD1" d="M18.7 18.3c-.3.1-.4-.3-.5-.5v.6c-.1.9-.1.4.2.5.1 0 .2.2.2.3 0 .3 0 .6-.1.9 0 .2-.1.5-.4.5-.1 0-.1.1-.1.2-.2.6-.3 1.2-.4 1.9v.4c.2-.1.4-.2.7-.4.7-.4 1-.8 1-1.6 0-.9-.3-1.7-.5-2.5.1-.2.1-.3-.1-.3m6.9 2.3c-.2.1-.3-.3-.4-.5-.1-.3-.1-.6-.1-.9 0-.1.1-.3.1-.3.3-.1.2.3.2-.5v-.6c-.1.3-.2.6-.5.5-.1 0-.1.1-.1.2-.2.8-.5 1.6-.5 2.5 0 .8.4 1.2 1 1.6.2.1.4.3.7.4v-.4c0-.7-.2-1.3-.4-1.9.1 0 .1-.2 0-.1" clip-path="url(#b)"/>
</svg>
