<svg xmlns="http://www.w3.org/2000/svg" xmlns:xlink="http://www.w3.org/1999/xlink" viewBox="0 0 40.3 40.3">
  <defs>
    <path id="a" d="M0 0h40.3v40.3H0z"/>
  </defs>
  <clipPath id="b">
    <use xlink:href="#a" overflow="visible"/>
  </clipPath>
  <path fill="#F9EDD1" d="M24.5 11.9c-.5.5-1.1.8-1.9.8-.7 0-1.3-.3-1.8-.8S20 10.8 20 10c0-.7.3-1.4.8-1.9s1.1-.8 1.9-.8c.7 0 1.4.3 1.9.8s.8 1.1.8 1.9c-.2.8-.4 1.4-.9 1.9m-4.6 18.4c.1.1.2.2.3.2.2 0 .4-.1.6-.3.6-.4 1.2-1.3 1.9-2.4l.6.4c-1.8 3.2-3.8 4.7-5.8 4.7-.8 0-1.4-.2-1.9-.7-.5-.4-.7-1-.7-1.7 0-.4.1-1 .3-1.7l2.5-8.6c.2-.8.4-1.4.4-1.9 0-.3-.1-.5-.3-.7-.2-.2-.5-.3-.9-.3h-.6l.2-.7 6.1-1h1.1L20 28.5c-.2.7-.3 1.2-.3 1.5 0 .1.1.2.2.3m20.4-10.5C39.9 8.8 31.2.2 20.1 0 9-.2.2 9.3 0 20.1-.2 31.2 9.3 40 20.1 40.2c11 .2 19.7-9.1 20.1-19.8v-.3c.1-.1.1-.2.1-.3" clip-path="url(#b)"/>
</svg>
